<svg xmlns="http://www.w3.org/2000/svg" viewBox="0 0 512 512" role="img" aria-label="EternaVoice">
  <defs>
    <radialGradient id="emberGlow" cx="50%" cy="48%" r="58%">
      <stop offset="0%" stop-color="#f1c391" stop-opacity="0.96"/>
      <stop offset="48%" stop-color="#c79f72" stop-opacity="0.58"/>
      <stop offset="100%" stop-color="#0d0b09" stop-opacity="0"/>
    </radialGradient>
    <linearGradient id="plate" x1="82" y1="56" x2="430" y2="456" gradientUnits="userSpaceOnUse">
      <stop offset="0%" stop-color="#19171a"/>
      <stop offset="58%" stop-color="#0f0e12"/>
      <stop offset="100%" stop-color="#07070a"/>
    </linearGradient>
    <linearGradient id="ring" x1="142" y1="126" x2="378" y2="386" gradientUnits="userSpaceOnUse">
      <stop offset="0%" stop-color="#ffe2b9"/>
      <stop offset="48%" stop-color="#c7a27c"/>
      <stop offset="100%" stop-color="#8f6240"/>
    </linearGradient>
    <filter id="softShadow" x="-20%" y="-20%" width="140%" height="140%">
      <feDropShadow dx="0" dy="22" stdDeviation="26" flood-color="#000000" flood-opacity="0.45"/>
    </filter>
  </defs>

  <rect width="512" height="512" rx="118" fill="url(#plate)"/>
  <rect x="18" y="18" width="476" height="476" rx="104" fill="none" stroke="#f5efe6" stroke-opacity="0.08" stroke-width="4"/>
  <circle cx="256" cy="256" r="190" fill="url(#emberGlow)" opacity="0.72"/>

  <g filter="url(#softShadow)">
    <circle cx="256" cy="256" r="126" fill="none" stroke="url(#ring)" stroke-width="28" stroke-opacity="0.28"/>
    <circle cx="256" cy="256" r="82" fill="none" stroke="url(#ring)" stroke-width="28" stroke-opacity="0.42"/>
    <circle cx="256" cy="256" r="38" fill="#d6a676"/>
    <circle cx="256" cy="256" r="18" fill="#fff0d2"/>
  </g>

  <path
    d="M156 258c21 0 21-56 42-56s21 108 42 108 21-108 42-108 21 108 42 108 21-56 42-56"
    fill="none"
    stroke="#f5efe6"
    stroke-linecap="round"
    stroke-linejoin="round"
    stroke-width="18"
    stroke-opacity="0.9"
  />
</svg>
