<svg xmlns="http://www.w3.org/2000/svg" viewBox="0 0 512 512">
  <path d="M118 0h276c65.2 0 118 52.8 118 118v276c0 65.2-52.8 118-118 118H118C52.8 512 0 459.2 0 394V118C0 52.8 52.8 0 118 0zm38 258c21 0 21-56 42-56s21 108 42 108 21-108 42-108 21 108 42 108 21-56 42-56c9.9 0 18-8.1 18-18s-8.1-18-18-18c-23.3 0-33.8 23.8-42 44.3-8.2-31-18.7-96.3-42-96.3s-33.8 65.3-42 96.3c-8.2-31-18.7-96.3-42-96.3s-33.8 65.3-42 96.3c-8.2-20.5-18.7-44.3-42-44.3-9.9 0-18 8.1-18 18s8.1 18 18 18zm100-128c69.6 0 126 56.4 126 126s-56.4 126-126 126-126-56.4-126-126 56.4-126 126-126zm0 44c-45.3 0-82 36.7-82 82s36.7 82 82 82 82-36.7 82-82-36.7-82-82-82zm0 44c21 0 38 17 38 38s-17 38-38 38-38-17-38-38 17-38 38-38z"/>
</svg>
